<?xml version="1.0" encoding="UTF-8" standalone="no"?>
<svg width="372px" height="372px" viewBox="0 0 372 372" version="1.1" xmlns="http://www.w3.org/2000/svg" xmlns:xlink="http://www.w3.org/1999/xlink" xmlns:sketch="http://www.bohemiancoding.com/sketch/ns">
    <!-- Generator: Sketch 3.2.1 (9971) - http://www.bohemiancoding.com/sketch -->
    <title>Slice 1</title>
    <desc>Created with Sketch.</desc>
    <defs></defs>
    <g id="Page-1" stroke="none" stroke-width="1" fill="none" fill-rule="evenodd" sketch:type="MSPage">
        <path d="M113.960652,238.299233 C84.0596915,213.630066 65,176.290848 65,134.5 C65,60.2177012 125.217701,0 199.5,0 C273.782299,0 334,60.2177012 334,134.5 C334,208.782299 273.782299,269 199.5,269 C184.753491,269 170.561269,266.626813 157.284422,262.241527 L100.841561,360.003429 C94.0079032,371.839672 78.8761611,375.896917 67.0380567,369.062184 C55.2025547,362.228954 51.1486665,347.092784 57.9814167,335.258113 L113.960652,238.299233 Z M199.778128,223 C248.103044,223 287.278128,183.824916 287.278128,135.5 C287.278128,87.1750844 248.103044,48 199.778128,48 C151.453212,48 112.278128,87.1750844 112.278128,135.5 C112.278128,183.824916 151.453212,223 199.778128,223 Z" id="Oval-1" fill="#D8D8D8" sketch:type="MSShapeGroup"></path>
    </g>
</svg>